<svg width="25" height="25" viewBox="0 0 25 25" fill="none" xmlns="http://www.w3.org/2000/svg">
  <mask id="path-1-outside-1_3964_16733" maskUnits="userSpaceOnUse" x="-0.161377" y="-0.03125" width="25" height="25" fill="black">
    <rect fill="white" x="-0.161377" y="-0.03125" width="25" height="25"/>
    <path fillRule="evenodd" clip-rule="evenodd" d="M23.2311 16.165C23.6131 15.0388 23.8253 13.8344 23.8374 12.582L23.8385 12.5621L23.8385 12.5552C23.8388 12.5081 23.8385 12.4586 23.8378 12.4076C23.8366 12.1798 23.8288 11.9537 23.8146 11.7292C23.8111 11.65 23.8079 11.5746 23.8052 11.5058L23.8047 11.4929L23.8031 11.4802C23.798 11.4392 23.7919 11.3979 23.7849 11.3564C23.6914 10.3828 23.4766 9.44458 23.1556 8.55717L23.1598 8.5556C23.0132 8.16646 22.9309 7.95903 22.8035 7.69512C20.9904 3.7265 16.9864 0.96875 12.3383 0.96875C5.9872 0.96875 0.838623 6.11748 0.838623 12.4688C0.838623 13.3208 0.931291 14.1513 1.1071 14.9505C1.10939 14.9637 1.11166 14.9767 1.11391 14.9896L1.11569 14.9893C2.26476 20.1282 6.85304 23.9688 12.3383 23.9688C14.249 23.9688 16.0508 23.5028 17.6363 22.6782C18.9402 22.055 19.9929 21.2528 20.6661 20.3993C21.2114 19.8269 21.6982 19.1983 22.1171 18.5232L22.1206 18.5254C22.3837 18.095 22.4714 17.9427 22.6749 17.5144C22.7285 17.4048 22.7803 17.2943 22.8305 17.1829C22.8691 17.1 22.9115 17.0088 22.9584 16.9078L22.9616 16.9009L23.0909 16.5806L23.0916 16.5788C23.1457 16.4397 23.1922 16.3017 23.2311 16.165ZM8.55568 22.6984C8.24114 22.4011 8.01671 22.0519 7.90206 21.6552C7.31169 19.6122 9.85534 17.0827 13.5835 16.0053C17.3116 14.9278 20.8124 15.7105 21.4028 17.7535C21.464 17.9652 21.4915 18.1822 21.4875 18.4022C21.7288 18.0308 21.9482 17.6439 22.1436 17.2431C22.1843 17.1573 22.2301 17.0596 22.2834 16.9452C22.4244 16.6325 22.551 16.3119 22.6626 15.9843C22.8207 15.4187 22.8214 14.9029 22.6931 14.4442C22.5368 13.8852 22.1816 13.3853 21.6348 12.97C20.5329 12.133 18.6672 11.6542 16.2318 11.7818C14.1798 11.8894 12.1047 12.422 10.2907 13.229C11.0322 13.2999 11.9931 13.5323 13.0112 14.1483L12.7025 14.6585C11.6966 14.0499 10.7586 13.8544 10.0752 13.8098C9.73315 13.7875 9.45497 13.8029 9.26455 13.8235C9.09805 13.8414 8.99908 13.8632 8.98436 13.8666C8.98436 13.8666 8.82891 13.5475 8.7293 13.343C8.71816 13.3201 8.80682 13.2804 8.92671 13.1637C9.05468 13.039 9.23291 12.8501 9.42799 12.5975C9.81832 12.092 10.2738 11.3349 10.5318 10.3304L11.1094 10.4788C10.8759 11.3877 10.4945 12.112 10.1271 12.6493C11.9856 11.8337 14.1018 11.2964 16.2006 11.1864C18.7087 11.0549 20.7369 11.5392 21.9955 12.4951C22.5201 12.8936 22.9133 13.3764 23.1446 13.9302C23.165 13.7779 23.1823 13.6246 23.1963 13.4703L23.1921 13.47C23.21 13.2798 23.2199 13.0482 23.2295 12.8254C23.2333 12.7358 23.2371 12.6476 23.2413 12.5641C23.2416 12.5324 23.2417 12.5006 23.2417 12.4688C23.2417 12.449 23.2416 12.4292 23.2415 12.4094C23.2387 12.2119 23.229 11.9884 23.2198 11.7781L23.219 11.7603C23.2121 11.6515 23.2035 11.5431 23.1933 11.4352C23.0774 10.7845 22.6669 10.0079 22.0029 9.34652C21.3023 8.64871 20.3389 8.09911 19.1917 7.9645L19.2612 7.37226C20.5598 7.52463 21.6425 8.14592 22.4237 8.92402C22.549 9.04885 22.6671 9.17823 22.7774 9.31095C22.6354 8.84073 22.4625 8.38392 22.261 7.94288C22.1572 7.72887 22.0193 7.46951 21.7801 7.02021C20.8317 5.42079 18.3929 4.32583 14.7002 4.51757C11.8935 4.66324 9.0498 5.49882 6.72618 6.73098C4.39438 7.96748 2.628 9.58045 1.91671 11.2525C1.6589 11.8582 1.44436 12.509 1.46007 12.978L1.49605 13.548C1.53935 13.9307 1.62259 14.4343 1.69179 14.8324C1.75286 15.1087 1.82442 15.3812 1.90603 15.6492C1.97513 15.2349 2.10246 14.8126 2.28012 14.392C3.07541 12.5082 4.99773 10.7801 7.41242 9.48991C9.55577 8.34467 12.1196 7.52633 14.7105 7.24661C14.1198 6.97839 13.4199 6.54665 12.7466 5.85423L13.174 5.43851C13.9163 6.20175 14.6897 6.61422 15.2747 6.8359C15.5674 6.9468 15.8125 7.00983 15.9823 7.04493C16.0672 7.06247 16.1331 7.07301 16.1765 7.07905C16.1981 7.08207 16.2142 7.08397 16.2241 7.08506C16.2291 7.0856 16.2345 7.08612 16.2345 7.08612L16.2361 7.08627L16.2354 7.08707L16.3114 7.66335L16.3098 7.6648C16.3075 7.66566 16.3034 7.66717 16.2978 7.66936C16.2865 7.67373 16.2687 7.6808 16.245 7.69074C16.1975 7.71063 16.1264 7.74201 16.0365 7.78635C15.8567 7.87509 15.6021 8.01538 15.3108 8.2189C14.7279 8.62602 14.0007 9.28387 13.426 10.286L12.9087 9.98939C13.4894 8.97673 14.2135 8.28513 14.8243 7.83416C12.2957 8.10015 9.78601 8.89773 7.69343 10.0158C5.33609 11.2754 3.54922 12.9189 2.82947 14.6239C2.35095 15.7568 2.31152 16.801 2.73743 17.6027C3.08251 18.2449 3.12753 18.3082 3.77319 19.2152L3.77385 19.2161C3.88781 19.3606 4.00461 19.5026 4.12559 19.641C3.97355 18.9314 4.06135 18.1577 4.39451 17.3615C4.68673 16.6631 5.15224 15.9924 5.74483 15.3677L6.17743 15.7781C5.62254 16.363 5.20285 16.9744 4.94458 17.5917C4.6315 18.3399 4.57839 19.028 4.73527 19.6281C4.89184 20.2271 5.26408 20.7634 5.84575 21.199C6.52675 21.6904 6.65834 21.7794 7.47657 22.2287L7.47549 22.2306C7.82527 22.4052 8.18575 22.5616 8.55568 22.6984ZM20.0891 4.79983C18.7123 4.13509 16.8689 3.80785 14.6693 3.92207C11.7717 4.07245 8.84362 4.93319 6.44684 6.20416C4.27406 7.35634 2.50337 8.8646 1.60834 10.5212C1.64217 10.3335 1.68081 10.1476 1.72411 9.96339L1.89927 9.3206L1.90453 9.30542C2.02068 8.96966 2.1684 8.54291 2.29574 8.22953L2.35319 8.09689C2.9786 6.6812 4.5276 5.31027 6.56202 4.25695C8.58802 3.20799 11.0513 2.49762 13.443 2.37322C15.691 2.25626 17.3131 2.69206 18.4463 3.4472L19.0118 3.85433C19.3119 4.10328 19.7007 4.43218 19.9776 4.69065L19.9785 4.68966C20.0157 4.72612 20.0525 4.76285 20.0891 4.79983ZM4.73802 4.65062C5.22009 4.32007 5.74021 4.01096 6.28786 3.72741C8.38496 2.64164 10.9307 1.90678 13.412 1.77772C13.7551 1.75987 14.0858 1.75433 14.4044 1.76055C13.7354 1.63223 13.0447 1.56506 12.3383 1.56506C9.38277 1.56506 6.70189 2.74103 4.73802 4.65062ZM19.6587 20.5497C19.6817 20.5275 19.7043 20.5053 19.7267 20.4831C20.6834 19.5317 20.9825 18.6224 20.7831 17.9326C20.5837 17.2427 19.8458 16.6331 18.529 16.3387C17.2387 16.0502 15.5429 16.1104 13.7625 16.6249C11.9822 17.1395 10.5157 17.9932 9.57816 18.9255C8.62142 19.877 8.32238 20.7862 8.52174 21.4761C8.72109 22.1659 9.45904 22.7755 10.7758 23.0699C11.6008 23.2543 12.5915 23.2962 13.6642 23.168C12.6595 23.1102 11.8974 22.7304 11.7155 22.1011C11.4285 21.1079 12.6956 19.8693 14.5456 19.3346C16.3956 18.8 18.128 19.1717 18.415 20.1649C18.5969 20.7942 18.1548 21.5221 17.3359 22.1069C17.8271 21.8734 18.2778 21.6145 18.6807 21.3389C19.0219 21.0945 19.3485 20.8309 19.6587 20.5497ZM17.3505 21.2588C17.7942 20.825 17.8411 20.5024 17.7953 20.344C17.7496 20.1856 17.5378 19.9377 16.9311 19.8075C16.3541 19.6837 15.5679 19.7106 14.7247 19.9543C13.8814 20.198 13.2021 20.5946 12.78 21.0072C12.3363 21.4409 12.2894 21.7635 12.3352 21.922C12.381 22.0804 12.5927 22.3283 13.1994 22.4585C13.7765 22.5823 14.5626 22.5554 15.4059 22.3117C16.2492 22.068 16.9285 21.6714 17.3505 21.2588Z"/>
</mask>
  <path fillRule="evenodd" clip-rule="evenodd" d="M23.2311 16.165C23.6131 15.0388 23.8253 13.8344 23.8374 12.582L23.8385 12.5621L23.8385 12.5552C23.8388 12.5081 23.8385 12.4586 23.8378 12.4076C23.8366 12.1798 23.8288 11.9537 23.8146 11.7292C23.8111 11.65 23.8079 11.5746 23.8052 11.5058L23.8047 11.4929L23.8031 11.4802C23.798 11.4392 23.7919 11.3979 23.7849 11.3564C23.6914 10.3828 23.4766 9.44458 23.1556 8.55717L23.1598 8.5556C23.0132 8.16646 22.9309 7.95903 22.8035 7.69512C20.9904 3.7265 16.9864 0.96875 12.3383 0.96875C5.9872 0.96875 0.838623 6.11748 0.838623 12.4688C0.838623 13.3208 0.931291 14.1513 1.1071 14.9505C1.10939 14.9637 1.11166 14.9767 1.11391 14.9896L1.11569 14.9893C2.26476 20.1282 6.85304 23.9688 12.3383 23.9688C14.249 23.9688 16.0508 23.5028 17.6363 22.6782C18.9402 22.055 19.9929 21.2528 20.6661 20.3993C21.2114 19.8269 21.6982 19.1983 22.1171 18.5232L22.1206 18.5254C22.3837 18.095 22.4714 17.9427 22.6749 17.5144C22.7285 17.4048 22.7803 17.2943 22.8305 17.1829C22.8691 17.1 22.9115 17.0088 22.9584 16.9078L22.9616 16.9009L23.0909 16.5806L23.0916 16.5788C23.1457 16.4397 23.1922 16.3017 23.2311 16.165ZM8.55568 22.6984C8.24114 22.4011 8.01671 22.0519 7.90206 21.6552C7.31169 19.6122 9.85534 17.0827 13.5835 16.0053C17.3116 14.9278 20.8124 15.7105 21.4028 17.7535C21.464 17.9652 21.4915 18.1822 21.4875 18.4022C21.7288 18.0308 21.9482 17.6439 22.1436 17.2431C22.1843 17.1573 22.2301 17.0596 22.2834 16.9452C22.4244 16.6325 22.551 16.3119 22.6626 15.9843C22.8207 15.4187 22.8214 14.9029 22.6931 14.4442C22.5368 13.8852 22.1816 13.3853 21.6348 12.97C20.5329 12.133 18.6672 11.6542 16.2318 11.7818C14.1798 11.8894 12.1047 12.422 10.2907 13.229C11.0322 13.2999 11.9931 13.5323 13.0112 14.1483L12.7025 14.6585C11.6966 14.0499 10.7586 13.8544 10.0752 13.8098C9.73315 13.7875 9.45497 13.8029 9.26455 13.8235C9.09805 13.8414 8.99908 13.8632 8.98436 13.8666C8.98436 13.8666 8.82891 13.5475 8.7293 13.343C8.71816 13.3201 8.80682 13.2804 8.92671 13.1637C9.05468 13.039 9.23291 12.8501 9.42799 12.5975C9.81832 12.092 10.2738 11.3349 10.5318 10.3304L11.1094 10.4788C10.8759 11.3877 10.4945 12.112 10.1271 12.6493C11.9856 11.8337 14.1018 11.2964 16.2006 11.1864C18.7087 11.0549 20.7369 11.5392 21.9955 12.4951C22.5201 12.8936 22.9133 13.3764 23.1446 13.9302C23.165 13.7779 23.1823 13.6246 23.1963 13.4703L23.1921 13.47C23.21 13.2798 23.2199 13.0482 23.2295 12.8254C23.2333 12.7358 23.2371 12.6476 23.2413 12.5641C23.2416 12.5324 23.2417 12.5006 23.2417 12.4688C23.2417 12.449 23.2416 12.4292 23.2415 12.4094C23.2387 12.2119 23.229 11.9884 23.2198 11.7781L23.219 11.7603C23.2121 11.6515 23.2035 11.5431 23.1933 11.4352C23.0774 10.7845 22.6669 10.0079 22.0029 9.34652C21.3023 8.64871 20.3389 8.09911 19.1917 7.9645L19.2612 7.37226C20.5598 7.52463 21.6425 8.14592 22.4237 8.92402C22.549 9.04885 22.6671 9.17823 22.7774 9.31095C22.6354 8.84073 22.4625 8.38392 22.261 7.94288C22.1572 7.72887 22.0193 7.46951 21.7801 7.02021C20.8317 5.42079 18.3929 4.32583 14.7002 4.51757C11.8935 4.66324 9.0498 5.49882 6.72618 6.73098C4.39438 7.96748 2.628 9.58045 1.91671 11.2525C1.6589 11.8582 1.44436 12.509 1.46007 12.978L1.49605 13.548C1.53935 13.9307 1.62259 14.4343 1.69179 14.8324C1.75286 15.1087 1.82442 15.3812 1.90603 15.6492C1.97513 15.2349 2.10246 14.8126 2.28012 14.392C3.07541 12.5082 4.99773 10.7801 7.41242 9.48991C9.55577 8.34467 12.1196 7.52633 14.7105 7.24661C14.1198 6.97839 13.4199 6.54665 12.7466 5.85423L13.174 5.43851C13.9163 6.20175 14.6897 6.61422 15.2747 6.8359C15.5674 6.9468 15.8125 7.00983 15.9823 7.04493C16.0672 7.06247 16.1331 7.07301 16.1765 7.07905C16.1981 7.08207 16.2142 7.08397 16.2241 7.08506C16.2291 7.0856 16.2345 7.08612 16.2345 7.08612L16.2361 7.08627L16.2354 7.08707L16.3114 7.66335L16.3098 7.6648C16.3075 7.66566 16.3034 7.66717 16.2978 7.66936C16.2865 7.67373 16.2687 7.6808 16.245 7.69074C16.1975 7.71063 16.1264 7.74201 16.0365 7.78635C15.8567 7.87509 15.6021 8.01538 15.3108 8.2189C14.7279 8.62602 14.0007 9.28387 13.426 10.286L12.9087 9.98939C13.4894 8.97673 14.2135 8.28513 14.8243 7.83416C12.2957 8.10015 9.78601 8.89773 7.69343 10.0158C5.33609 11.2754 3.54922 12.9189 2.82947 14.6239C2.35095 15.7568 2.31152 16.801 2.73743 17.6027C3.08251 18.2449 3.12753 18.3082 3.77319 19.2152L3.77385 19.2161C3.88781 19.3606 4.00461 19.5026 4.12559 19.641C3.97355 18.9314 4.06135 18.1577 4.39451 17.3615C4.68673 16.6631 5.15224 15.9924 5.74483 15.3677L6.17743 15.7781C5.62254 16.363 5.20285 16.9744 4.94458 17.5917C4.6315 18.3399 4.57839 19.028 4.73527 19.6281C4.89184 20.2271 5.26408 20.7634 5.84575 21.199C6.52675 21.6904 6.65834 21.7794 7.47657 22.2287L7.47549 22.2306C7.82527 22.4052 8.18575 22.5616 8.55568 22.6984ZM20.0891 4.79983C18.7123 4.13509 16.8689 3.80785 14.6693 3.92207C11.7717 4.07245 8.84362 4.93319 6.44684 6.20416C4.27406 7.35634 2.50337 8.8646 1.60834 10.5212C1.64217 10.3335 1.68081 10.1476 1.72411 9.96339L1.89927 9.3206L1.90453 9.30542C2.02068 8.96966 2.1684 8.54291 2.29574 8.22953L2.35319 8.09689C2.9786 6.6812 4.5276 5.31027 6.56202 4.25695C8.58802 3.20799 11.0513 2.49762 13.443 2.37322C15.691 2.25626 17.3131 2.69206 18.4463 3.4472L19.0118 3.85433C19.3119 4.10328 19.7007 4.43218 19.9776 4.69065L19.9785 4.68966C20.0157 4.72612 20.0525 4.76285 20.0891 4.79983ZM4.73802 4.65062C5.22009 4.32007 5.74021 4.01096 6.28786 3.72741C8.38496 2.64164 10.9307 1.90678 13.412 1.77772C13.7551 1.75987 14.0858 1.75433 14.4044 1.76055C13.7354 1.63223 13.0447 1.56506 12.3383 1.56506C9.38277 1.56506 6.70189 2.74103 4.73802 4.65062ZM19.6587 20.5497C19.6817 20.5275 19.7043 20.5053 19.7267 20.4831C20.6834 19.5317 20.9825 18.6224 20.7831 17.9326C20.5837 17.2427 19.8458 16.6331 18.529 16.3387C17.2387 16.0502 15.5429 16.1104 13.7625 16.6249C11.9822 17.1395 10.5157 17.9932 9.57816 18.9255C8.62142 19.877 8.32238 20.7862 8.52174 21.4761C8.72109 22.1659 9.45904 22.7755 10.7758 23.0699C11.6008 23.2543 12.5915 23.2962 13.6642 23.168C12.6595 23.1102 11.8974 22.7304 11.7155 22.1011C11.4285 21.1079 12.6956 19.8693 14.5456 19.3346C16.3956 18.8 18.128 19.1717 18.415 20.1649C18.5969 20.7942 18.1548 21.5221 17.3359 22.1069C17.8271 21.8734 18.2778 21.6145 18.6807 21.3389C19.0219 21.0945 19.3485 20.8309 19.6587 20.5497ZM17.3505 21.2588C17.7942 20.825 17.8411 20.5024 17.7953 20.344C17.7496 20.1856 17.5378 19.9377 16.9311 19.8075C16.3541 19.6837 15.5679 19.7106 14.7247 19.9543C13.8814 20.198 13.2021 20.5946 12.78 21.0072C12.3363 21.4409 12.2894 21.7635 12.3352 21.922C12.381 22.0804 12.5927 22.3283 13.1994 22.4585C13.7765 22.5823 14.5626 22.5554 15.4059 22.3117C16.2492 22.068 16.9285 21.6714 17.3505 21.2588Z" fill="#04171D"/>
  <path d="M1.86838 9.39872L1.87171 9.39988L1.93734 9.21095L1.934 9.20979L1.86838 9.39872ZM7.90206 21.6552L7.70992 21.7107L7.70992 21.7107L7.90206 21.6552ZM8.55568 22.6984L8.48629 22.886C8.57542 22.919 8.67544 22.8847 8.72558 22.8039C8.77572 22.7232 8.76213 22.6183 8.69306 22.5531L8.55568 22.6984ZM13.5835 16.0053L13.5279 15.8131L13.5279 15.8131L13.5835 16.0053ZM21.4028 17.7535L21.5949 17.6979L21.5949 17.6979L21.4028 17.7535ZM21.4875 18.4022L21.2876 18.3986C21.2859 18.4878 21.3436 18.5673 21.429 18.5934C21.5143 18.6196 21.6066 18.586 21.6552 18.5112L21.4875 18.4022ZM22.1436 17.2431L22.3234 17.3308L22.3243 17.3288L22.1436 17.2431ZM22.2834 16.9452L22.4647 17.0297L22.4657 17.0274L22.2834 16.9452ZM22.6626 15.9843L22.8522 16.0489L22.8552 16.0382L22.6626 15.9843ZM22.6931 14.4442L22.5005 14.4981L22.5005 14.4981L22.6931 14.4442ZM21.6348 12.97L21.7558 12.8107L21.7558 12.8107L21.6348 12.97ZM16.2318 11.7818L16.2214 11.5821L16.2214 11.5821L16.2318 11.7818ZM10.2907 13.229L10.2094 13.0462C10.1264 13.0832 10.0787 13.1715 10.0933 13.2612C10.1079 13.3509 10.1812 13.4194 10.2717 13.4281L10.2907 13.229ZM13.0112 14.1483L13.1823 14.2518C13.2395 14.1573 13.2092 14.0343 13.1147 13.9772L13.0112 14.1483ZM12.7025 14.6585L12.599 14.8296C12.6444 14.8571 12.6988 14.8654 12.7503 14.8527C12.8018 14.84 12.8462 14.8074 12.8736 14.762L12.7025 14.6585ZM10.0752 13.8098L10.0622 14.0094L10.0622 14.0094L10.0752 13.8098ZM9.26455 13.8235L9.286 14.0223L9.286 14.0223L9.26455 13.8235ZM8.98436 13.8666L8.80456 13.9542C8.8453 14.0378 8.93834 14.0823 9.02903 14.0615L8.98436 13.8666ZM8.7293 13.343L8.9091 13.2554L8.7293 13.343ZM8.92671 13.1637L9.06624 13.307L9.06625 13.307L8.92671 13.1637ZM9.42799 12.5975L9.58628 12.7197L9.58628 12.7197L9.42799 12.5975ZM10.5318 10.3304L10.5816 10.1367C10.5302 10.1235 10.4757 10.1312 10.43 10.1582C10.3844 10.1852 10.3513 10.2293 10.3381 10.2806L10.5318 10.3304ZM11.1094 10.4788L11.3031 10.5285C11.3306 10.4215 11.2661 10.3125 11.1591 10.285L11.1094 10.4788ZM10.1271 12.6493L9.96205 12.5365C9.91167 12.6101 9.91621 12.7083 9.97319 12.777C10.0302 12.8457 10.1258 12.8684 10.2075 12.8325L10.1271 12.6493ZM16.2006 11.1864L16.1902 10.9866L16.1902 10.9866L16.2006 11.1864ZM21.9955 12.4951L21.8745 12.6544L21.8745 12.6544L21.9955 12.4951ZM23.1446 13.9302L22.9601 14.0073C22.9949 14.0906 23.0812 14.1403 23.1708 14.1284C23.2603 14.1166 23.3308 14.0462 23.3428 13.9567L23.1446 13.9302ZM23.1963 13.4703L23.3955 13.4885C23.4055 13.3787 23.3248 13.2815 23.215 13.2712L23.1963 13.4703ZM23.1921 13.47L22.993 13.4513C22.9827 13.5612 23.0635 13.6587 23.1734 13.6691L23.1921 13.47ZM23.2295 12.8254L23.4293 12.8339L23.4293 12.8339L23.2295 12.8254ZM23.2413 12.5641L23.4412 12.5742L23.4413 12.5659L23.2413 12.5641ZM23.2415 12.4094L23.4415 12.4083L23.4415 12.4066L23.2415 12.4094ZM23.2198 11.7781L23.02 11.7868L23.02 11.7868L23.2198 11.7781ZM23.219 11.7603L23.4189 11.7516L23.4186 11.7475L23.219 11.7603ZM23.1933 11.4352L23.3925 11.4165C23.392 11.411 23.3912 11.4055 23.3902 11.4001L23.1933 11.4352ZM22.0029 9.34652L22.1441 9.20482L22.1441 9.20482L22.0029 9.34652ZM19.1917 7.9645L18.9931 7.94119C18.9802 8.0509 19.0587 8.15026 19.1684 8.16314L19.1917 7.9645ZM19.2612 7.37226L19.2845 7.17362C19.2319 7.16744 19.1789 7.18244 19.1373 7.21532C19.0956 7.2482 19.0688 7.29627 19.0626 7.34895L19.2612 7.37226ZM22.4237 8.92402L22.5648 8.78232L22.5648 8.78232L22.4237 8.92402ZM22.7774 9.31095L22.6236 9.4388C22.6845 9.51196 22.7884 9.53215 22.8722 9.48708C22.956 9.44202 22.9964 9.34418 22.9689 9.25311L22.7774 9.31095ZM22.261 7.94288L22.4429 7.85976L22.441 7.85565L22.261 7.94288ZM21.7801 7.02021L21.9568 6.92613L21.9521 6.9182L21.7801 7.02021ZM14.7002 4.51757L14.7105 4.7173L14.7105 4.7173L14.7002 4.51757ZM6.72618 6.73098L6.63248 6.55429L6.63248 6.55429L6.72618 6.73098ZM1.91671 11.2525L2.10073 11.3308L2.10075 11.3307L1.91671 11.2525ZM1.46007 12.978L1.2601 12.9847L1.26047 12.9906L1.46007 12.978ZM1.49605 13.548L1.29621 13.5607L1.29732 13.5705L1.49605 13.548ZM1.69179 14.8324L1.49454 14.8667L1.4965 14.8755L1.69179 14.8324ZM1.90603 15.6492L1.7147 15.7074C1.74175 15.7963 1.82638 15.8548 1.91905 15.8488C2.01171 15.8427 2.08803 15.7737 2.10331 15.6821L1.90603 15.6492ZM2.28012 14.392L2.46436 14.4698L2.46438 14.4698L2.28012 14.392ZM7.41242 9.48991L7.31817 9.31351L7.31817 9.31351L7.41242 9.48991ZM14.7105 7.24661L14.732 7.44545C14.8216 7.43578 14.8936 7.36734 14.908 7.27834C14.9223 7.18934 14.8752 7.10177 14.7932 7.0645L14.7105 7.24661ZM12.7466 5.85423L12.6071 5.71086C12.5279 5.78786 12.5262 5.91448 12.6032 5.99367L12.7466 5.85423ZM13.174 5.43851L13.3174 5.29907C13.2804 5.26105 13.2299 5.23927 13.1768 5.23853C13.1238 5.23779 13.0726 5.25815 13.0346 5.29513L13.174 5.43851ZM15.2747 6.8359L15.2038 7.02293L15.2038 7.02293L15.2747 6.8359ZM15.9823 7.04493L15.9419 7.24079L15.9419 7.24079L15.9823 7.04493ZM16.1765 7.07905L16.2041 6.88097L16.2041 6.88096L16.1765 7.07905ZM16.2241 7.08506L16.2459 6.88624L16.2459 6.88624L16.2241 7.08506ZM16.2345 7.08612L16.2151 7.28518L16.2161 7.28528L16.2345 7.08612ZM16.2361 7.08627L16.3895 7.21458C16.4372 7.15755 16.4493 7.07875 16.421 7.01001C16.3926 6.94127 16.3285 6.89394 16.2544 6.88711L16.2361 7.08627ZM16.2354 7.08707L16.082 6.95876C16.0461 7.0017 16.0298 7.05772 16.0371 7.11322L16.2354 7.08707ZM16.3114 7.66335L16.4436 7.81344C16.4936 7.76938 16.5184 7.70329 16.5097 7.6372L16.3114 7.66335ZM16.3098 7.6648L16.3794 7.85227C16.4024 7.84374 16.4236 7.83107 16.442 7.81489L16.3098 7.6648ZM16.2978 7.66936L16.3699 7.85589L16.37 7.85588L16.2978 7.66936ZM16.245 7.69074L16.1677 7.50628L16.1676 7.50628L16.245 7.69074ZM16.0365 7.78635L16.125 7.96571L16.125 7.96571L16.0365 7.78635ZM15.3108 8.2189L15.1962 8.05493L15.1962 8.05493L15.3108 8.2189ZM13.426 10.286L13.3265 10.4595C13.3725 10.4859 13.4271 10.4929 13.4783 10.4791C13.5295 10.4652 13.5731 10.4315 13.5995 10.3855L13.426 10.286ZM12.9087 9.98939L12.7352 9.88991C12.6803 9.98573 12.7134 10.1079 12.8092 10.1629L12.9087 9.98939ZM14.8243 7.83416L14.9431 7.99506C15.0157 7.94146 15.0434 7.84589 15.0108 7.76176C14.9781 7.67764 14.8932 7.62581 14.8034 7.63525L14.8243 7.83416ZM7.69343 10.0158L7.59918 9.83945L7.59918 9.83945L7.69343 10.0158ZM2.82947 14.6239L3.01371 14.7017L3.01372 14.7017L2.82947 14.6239ZM2.73743 17.6027L2.5608 17.6966L2.56125 17.6974L2.73743 17.6027ZM3.77319 19.2152L3.93616 19.0992L3.93612 19.0992L3.77319 19.2152ZM3.77385 19.2161L3.61068 19.3322L3.61683 19.34L3.77385 19.2161ZM4.12559 19.641L3.975 19.7726C4.03497 19.8413 4.13374 19.8607 4.21521 19.8198C4.29668 19.779 4.34024 19.6882 4.32115 19.5991L4.12559 19.641ZM4.39451 17.3615L4.57901 17.4387L4.57901 17.4387L4.39451 17.3615ZM5.74483 15.3677L5.88248 15.2226C5.844 15.1861 5.79259 15.1664 5.73957 15.1678C5.68654 15.1692 5.63624 15.1916 5.59974 15.23L5.74483 15.3677ZM6.17743 15.7781L6.32253 15.9157C6.39855 15.8356 6.39521 15.709 6.31508 15.633L6.17743 15.7781ZM4.94458 17.5917L5.12908 17.6689L5.12908 17.6689L4.94458 17.5917ZM4.73527 19.6281L4.54177 19.6787L4.54177 19.6787L4.73527 19.6281ZM5.84575 21.199L5.72586 21.3591L5.72871 21.3611L5.84575 21.199ZM7.47657 22.2287L7.65189 22.3249C7.70504 22.2281 7.66964 22.1065 7.57282 22.0534L7.47657 22.2287ZM7.47549 22.2306L7.30017 22.1344C7.27399 22.1821 7.26837 22.2384 7.28459 22.2903C7.30082 22.3422 7.3375 22.3853 7.38617 22.4096L7.47549 22.2306ZM23.8374 12.582L23.6375 12.5717L23.6374 12.5801L23.8374 12.582ZM23.2311 16.165L23.0415 16.1006L23.0387 16.1102L23.2311 16.165ZM23.8385 12.5621L24.0384 12.5724L24.0385 12.5633L23.8385 12.5621ZM23.8385 12.5552L24.0385 12.5564L24.0385 12.5564L23.8385 12.5552ZM23.8378 12.4076L23.6378 12.4086L23.6378 12.4103L23.8378 12.4076ZM23.8146 11.7292L23.6147 11.738L23.615 11.7419L23.8146 11.7292ZM23.8052 11.5058L23.6053 11.5134L23.6054 11.5134L23.8052 11.5058ZM23.8047 11.4929L24.0046 11.4853C24.0043 11.4795 24.0039 11.4738 24.0032 11.4681L23.8047 11.4929ZM23.8031 11.4802L23.6047 11.505L23.6047 11.505L23.8031 11.4802ZM23.7849 11.3564L23.5858 11.3755C23.5862 11.3803 23.5869 11.385 23.5877 11.3898L23.7849 11.3564ZM23.1556 8.55717L23.0852 8.37C22.9828 8.40857 22.9304 8.52228 22.9676 8.62519L23.1556 8.55717ZM23.1598 8.5556L23.2303 8.74276C23.28 8.72407 23.3201 8.68641 23.342 8.63809C23.3639 8.58976 23.3657 8.53472 23.347 8.48508L23.1598 8.5556ZM22.8035 7.69512L22.6216 7.77824L22.6234 7.78207L22.8035 7.69512ZM1.1071 14.9505L1.30433 14.9162L1.30243 14.9076L1.1071 14.9505ZM1.11391 14.9896L0.916897 15.024C0.926034 15.0763 0.955568 15.1228 0.998998 15.1533C1.04243 15.1838 1.09619 15.1957 1.14846 15.1866L1.11391 14.9896ZM1.11569 14.9893L1.31087 14.9456C1.28755 14.8413 1.18638 14.7738 1.08114 14.7923L1.11569 14.9893ZM17.6363 22.6782L17.55 22.4977L17.5441 22.5008L17.6363 22.6782ZM20.6661 20.3993L20.5213 20.2614C20.517 20.2659 20.5129 20.2706 20.5091 20.2755L20.6661 20.3993ZM22.1171 18.5232L22.2215 18.3526C22.1276 18.2952 22.0051 18.3243 21.9471 18.4178L22.1171 18.5232ZM22.1206 18.5254L22.0163 18.696C22.0615 18.7237 22.1159 18.7322 22.1675 18.7198C22.2191 18.7073 22.2636 18.6749 22.2913 18.6297L22.1206 18.5254ZM22.6749 17.5144L22.4952 17.4265L22.4943 17.4285L22.6749 17.5144ZM22.8305 17.1829L22.6492 17.0984L22.6481 17.1008L22.8305 17.1829ZM22.9584 16.9078L22.777 16.8235L22.777 16.8235L22.9584 16.9078ZM22.9616 16.9009L23.1432 16.9853L23.1471 16.9757L22.9616 16.9009ZM23.0909 16.5806L23.2764 16.6554L23.2774 16.653L23.0909 16.5806ZM23.0916 16.5788L22.9052 16.5063L22.9052 16.5064L23.0916 16.5788ZM14.6693 3.92207L14.6796 4.1218L14.6796 4.1218L14.6693 3.92207ZM20.0891 4.79983L20.0021 4.97994C20.0898 5.02227 20.1953 4.99531 20.2519 4.91608C20.3084 4.83685 20.2998 4.72838 20.2313 4.65916L20.0891 4.79983ZM6.44684 6.20416L6.35314 6.02746L6.35314 6.02746L6.44684 6.20416ZM1.60834 10.5212L1.41151 10.4857C1.39408 10.5824 1.44949 10.6774 1.54223 10.7099C1.63498 10.7424 1.73759 10.7027 1.7843 10.6162L1.60834 10.5212ZM1.72411 9.96339L1.53103 9.91078L1.52942 9.91762L1.72411 9.96339ZM1.89927 9.3206L1.70984 9.25507L1.70631 9.26802L1.89927 9.3206ZM1.90453 9.30542L2.09354 9.3708L2.09354 9.3708L1.90453 9.30542ZM2.29574 8.22953L2.11217 8.15001L2.11045 8.15424L2.29574 8.22953ZM2.35319 8.09689L2.17025 8.01607L2.16967 8.01739L2.35319 8.09689ZM6.56202 4.25695L6.65397 4.43456L6.65397 4.43456L6.56202 4.25695ZM13.443 2.37322L13.4534 2.57295L13.4534 2.57295L13.443 2.37322ZM18.4463 3.4472L18.5632 3.28479L18.5572 3.28077L18.4463 3.4472ZM19.0118 3.85433L19.1398 3.70004L19.1286 3.69203L19.0118 3.85433ZM19.9776 4.69065L19.8411 4.83686C19.8799 4.87307 19.9315 4.89238 19.9846 4.89053C20.0376 4.88869 20.0877 4.86584 20.1239 4.82701L19.9776 4.69065ZM19.9785 4.68966L20.1187 4.54698C20.0802 4.50917 20.0281 4.48852 19.9741 4.48971C19.9202 4.4909 19.869 4.51383 19.8322 4.5533L19.9785 4.68966ZM6.28786 3.72741L6.19591 3.54981L6.19591 3.54981L6.28786 3.72741ZM4.73802 4.65062L4.5986 4.50723C4.52413 4.57963 4.51748 4.69699 4.58329 4.77734C4.6491 4.85769 4.76546 4.8743 4.85112 4.81556L4.73802 4.65062ZM13.412 1.77772L13.4224 1.97745L13.4224 1.97745L13.412 1.77772ZM14.4044 1.76055L14.4005 1.96051C14.5043 1.96254 14.5924 1.88472 14.6033 1.78141C14.6141 1.6781 14.5441 1.58369 14.4421 1.56413L14.4044 1.76055ZM19.7267 20.4831L19.5857 20.3413L19.5857 20.3413L19.7267 20.4831ZM19.6587 20.5497L19.7931 20.6979L19.7975 20.6936L19.6587 20.5497ZM18.529 16.3387L18.4854 16.5339L18.4854 16.5339L18.529 16.3387ZM13.7625 16.6249L13.8181 16.8171L13.8181 16.8171L13.7625 16.6249ZM9.57816 18.9255L9.71918 19.0673L9.71918 19.0673L9.57816 18.9255ZM8.52174 21.4761L8.71388 21.4205L8.71388 21.4205L8.52174 21.4761ZM10.7758 23.0699L10.8194 22.8747L10.8194 22.8747L10.7758 23.0699ZM13.6642 23.168L13.6879 23.3666C13.7908 23.3543 13.8673 23.2654 13.8641 23.1619C13.8609 23.0583 13.7791 22.9743 13.6757 22.9683L13.6642 23.168ZM11.7155 22.1011L11.9077 22.0455L11.9077 22.0455L11.7155 22.1011ZM14.5456 19.3346L14.49 19.1425L14.49 19.1425L14.5456 19.3346ZM18.415 20.1649L18.2229 20.2204L18.2229 20.2204L18.415 20.1649ZM17.3359 22.1069L17.2196 21.9441C17.1353 22.0044 17.111 22.119 17.1635 22.2083C17.2161 22.2977 17.3281 22.332 17.4217 22.2875L17.3359 22.1069ZM18.6807 21.3389L18.7937 21.5041L18.7972 21.5015L18.6807 21.3389ZM17.7953 20.344L17.6032 20.3995L17.6032 20.3995L17.7953 20.344ZM17.3505 21.2588L17.2107 21.1158L17.2107 21.1158L17.3505 21.2588ZM16.9311 19.8075L16.9731 19.612L16.9731 19.612L16.9311 19.8075ZM14.7247 19.9543L14.6691 19.7622L14.6691 19.7622L14.7247 19.9543ZM12.78 21.0072L12.6402 20.8642L12.6402 20.8642L12.78 21.0072ZM12.3352 21.922L12.5273 21.8665L12.5273 21.8665L12.3352 21.922ZM13.1994 22.4585L13.1575 22.654L13.1575 22.654L13.1994 22.4585ZM7.70992 21.7107C7.83561 22.1456 8.08094 22.5249 8.4183 22.8438L8.69306 22.5531C8.40133 22.2773 8.19781 21.9582 8.0942 21.5996L7.70992 21.7107ZM13.5279 15.8131C11.6379 16.3593 10.0385 17.276 8.9823 18.3263C7.93203 19.3708 7.38502 20.5864 7.70992 21.7107L8.0942 21.5996C7.82872 20.681 8.25836 19.6104 9.26435 18.61C10.2644 17.6155 11.8009 16.7286 13.639 16.1974L13.5279 15.8131ZM21.5949 17.6979C21.27 16.5737 20.1589 15.8372 18.7134 15.514C17.2597 15.189 15.4179 15.2669 13.5279 15.8131L13.639 16.1974C15.4771 15.6662 17.2498 15.5967 18.6261 15.9044C20.0107 16.214 20.9452 16.8903 21.2106 17.809L21.5949 17.6979ZM21.6875 18.4058C21.6918 18.1665 21.6619 17.9296 21.5949 17.6979L21.2106 17.809C21.2661 18.0008 21.2912 18.1978 21.2876 18.3986L21.6875 18.4058ZM21.9639 17.1554C21.772 17.5488 21.5567 17.9287 21.3198 18.2932L21.6552 18.5112C21.901 18.133 22.1243 17.7389 22.3234 17.3308L21.9639 17.1554ZM22.1021 16.8607C22.0489 16.9749 22.0034 17.0722 21.9629 17.1574L22.3243 17.3288C22.3653 17.2424 22.4113 17.1442 22.4647 17.0297L22.1021 16.8607ZM22.4732 15.9199C22.3638 16.2414 22.2394 16.5561 22.1011 16.863L22.4657 17.0274C22.6093 16.7089 22.7383 16.3824 22.8519 16.0488L22.4732 15.9199ZM22.5005 14.4981C22.6178 14.9176 22.6194 15.3959 22.4699 15.9305L22.8552 16.0382C23.022 15.4415 23.0249 14.8882 22.8857 14.3904L22.5005 14.4981ZM21.5138 13.1292C22.0316 13.5225 22.3577 13.9874 22.5005 14.4981L22.8857 14.3904C22.7158 13.783 22.3317 13.2481 21.7558 12.8107L21.5138 13.1292ZM16.2423 11.9816C18.6532 11.8552 20.4645 12.3322 21.5138 13.1292L21.7558 12.8107C20.6013 11.9338 18.6811 11.4532 16.2214 11.5821L16.2423 11.9816ZM10.372 13.4117C12.1653 12.6139 14.2165 12.0878 16.2423 11.9816L16.2214 11.5821C14.1432 11.6911 12.0441 12.2301 10.2094 13.0462L10.372 13.4117ZM13.1147 13.9772C12.0672 13.3434 11.0765 13.1032 10.3097 13.0299L10.2717 13.4281C10.9879 13.4965 11.919 13.7212 12.9077 14.3194L13.1147 13.9772ZM12.8736 14.762L13.1823 14.2518L12.8401 14.0448L12.5314 14.555L12.8736 14.762ZM10.0622 14.0094C10.7192 14.0523 11.625 14.2403 12.599 14.8296L12.8061 14.4874C11.7683 13.8595 10.798 13.6566 10.0882 13.6102L10.0622 14.0094ZM9.286 14.0223C9.46652 14.0028 9.73307 13.9879 10.0622 14.0094L10.0882 13.6102C9.73324 13.587 9.44343 13.603 9.24311 13.6246L9.286 14.0223ZM9.2697 12.4752C9.08109 12.7194 8.90931 12.9014 8.78717 13.0204L9.06625 13.307C9.20005 13.1766 9.38473 12.9807 9.58628 12.7197L9.2697 12.4752ZM10.3381 10.2806C10.0882 11.2534 9.64719 11.9864 9.2697 12.4752L9.58628 12.7197C9.98945 12.1977 10.4594 11.4164 10.7255 10.3801L10.3381 10.2806ZM11.1591 10.285L10.5816 10.1367L10.4821 10.5241L11.0596 10.6725L11.1591 10.285ZM10.2922 12.7622C10.6704 12.2091 11.0629 11.4636 11.3031 10.5285L10.9157 10.429C10.6889 11.3117 10.3186 12.0149 9.96205 12.5365L10.2922 12.7622ZM16.1902 10.9866C14.0655 11.098 11.9257 11.6416 10.0468 12.4662L10.2075 12.8325C12.0456 12.0258 14.1381 11.4948 16.2111 11.3861L16.1902 10.9866ZM22.1164 12.3358C20.8053 11.34 18.7226 10.8539 16.1902 10.9866L16.2111 11.3861C18.6948 11.2559 20.6685 11.7383 21.8745 12.6544L22.1164 12.3358ZM23.3291 13.8531C23.0823 13.2622 22.6649 12.7524 22.1164 12.3358L21.8745 12.6544C22.3754 13.0348 22.7442 13.4907 22.9601 14.0073L23.3291 13.8531ZM22.9971 13.4522C22.9833 13.6036 22.9664 13.7541 22.9464 13.9036L23.3428 13.9567C23.3636 13.8016 23.3812 13.6455 23.3955 13.4885L22.9971 13.4522ZM23.1734 13.6691L23.1776 13.6695L23.215 13.2712L23.2108 13.2708L23.1734 13.6691ZM23.0296 12.8168C23.02 13.0412 23.0103 13.2672 22.993 13.4513L23.3913 13.4886C23.4097 13.2924 23.4198 13.0553 23.4293 12.8339L23.0296 12.8168ZM23.0415 12.5541C23.0373 12.6384 23.0335 12.7274 23.0296 12.8168L23.4293 12.8339C23.4331 12.7442 23.4369 12.6568 23.441 12.5742L23.0415 12.5541ZM23.0417 12.4688C23.0417 12.5 23.0416 12.5312 23.0413 12.5624L23.4413 12.5659C23.4416 12.5335 23.4417 12.5011 23.4417 12.4688H23.0417ZM23.0415 12.4105C23.0416 12.4299 23.0417 12.4493 23.0417 12.4688H23.4417C23.4417 12.4486 23.4416 12.4285 23.4415 12.4083L23.0415 12.4105ZM23.02 11.7868C23.0292 11.9978 23.0388 12.2182 23.0416 12.4123L23.4415 12.4066C23.4387 12.2056 23.4288 11.9789 23.4196 11.7694L23.02 11.7868ZM23.0192 11.769L23.02 11.7868L23.4196 11.7694L23.4189 11.7516L23.0192 11.769ZM22.9942 11.4539C23.0042 11.5599 23.0126 11.6663 23.0195 11.7731L23.4186 11.7475C23.4115 11.6367 23.4028 11.5264 23.3925 11.4165L22.9942 11.4539ZM21.8618 9.48822C22.5024 10.1263 22.889 10.8673 22.9964 11.4703L23.3902 11.4001C23.2658 10.7017 22.8314 9.88945 22.1441 9.20482L21.8618 9.48822ZM19.1684 8.16314C20.2649 8.29179 21.1882 8.81736 21.8618 9.48822L22.1441 9.20482C21.4164 8.48006 20.413 7.90643 19.2151 7.76586L19.1684 8.16314ZM19.0626 7.34895L18.9931 7.94119L19.3904 7.9878L19.4599 7.39556L19.0626 7.34895ZM22.5648 8.78232C21.7566 7.97729 20.6339 7.33195 19.2845 7.17362L19.2379 7.57089C20.4857 7.7173 21.5284 8.31454 22.2826 9.06573L22.5648 8.78232ZM22.9312 9.18309C22.8169 9.04558 22.6946 8.91157 22.5648 8.78232L22.2826 9.06573C22.4034 9.18612 22.5173 9.31088 22.6236 9.4388L22.9312 9.18309ZM22.0791 8.02599C22.2768 8.45889 22.4466 8.90726 22.586 9.36878L22.9689 9.25311C22.8242 8.7742 22.6481 8.30895 22.4429 7.85978L22.0791 8.02599ZM21.6036 7.11419C21.8435 7.565 21.9793 7.82034 22.081 8.03012L22.441 7.85565C22.3352 7.63739 22.195 7.37402 21.9566 6.92623L21.6036 7.11419ZM14.7105 4.7173C18.3739 4.52708 20.7161 5.61785 21.6081 7.12221L21.9521 6.9182C20.9474 5.22374 18.4119 4.12457 14.6898 4.31784L14.7105 4.7173ZM6.81988 6.90767C9.11896 5.68852 11.9343 4.86139 14.7105 4.7173L14.6898 4.31784C11.8526 4.46509 8.98065 5.30911 6.63248 6.55429L6.81988 6.90767ZM2.10075 11.3307C2.78647 9.71886 4.50714 8.13407 6.81988 6.90767L6.63248 6.55429C4.28162 7.8009 2.46953 9.44204 1.73267 11.1742L2.10075 11.3307ZM1.65996 12.9713C1.64589 12.5511 1.84266 11.9372 2.10073 11.3308L1.73268 11.1741C1.47514 11.7793 1.24284 12.4668 1.26019 12.9847L1.65996 12.9713ZM1.69566 13.5354L1.65968 12.9654L1.26047 12.9906L1.29645 13.5606L1.69566 13.5354ZM1.88883 14.7981C1.81962 14.4 1.73734 13.9017 1.69479 13.5256L1.29732 13.5705C1.34135 13.9597 1.42555 14.4686 1.49474 14.8666L1.88883 14.7981ZM2.09736 15.5909C2.01726 15.3279 1.94702 15.0605 1.88708 14.7892L1.4965 14.8755C1.5587 15.157 1.63159 15.4344 1.7147 15.7074L2.09736 15.5909ZM2.09588 14.3142C1.91296 14.7473 1.78075 15.1846 1.70876 15.6163L2.10331 15.6821C2.1695 15.2852 2.29196 14.878 2.46436 14.4698L2.09588 14.3142ZM7.31817 9.31351C4.88424 10.614 2.91649 12.3704 2.09587 14.3142L2.46438 14.4698C3.23433 12.6459 5.11122 10.9463 7.50668 9.66631L7.31817 9.31351ZM14.689 7.04776C12.0721 7.33029 9.48367 8.15644 7.31817 9.31351L7.50668 9.66631C9.62788 8.5329 12.167 7.72237 14.732 7.44545L14.689 7.04776ZM12.6032 5.99367C13.2962 6.70629 14.0175 7.15162 14.6278 7.42872L14.7932 7.0645C14.222 6.80517 13.5436 6.38701 12.8899 5.7148L12.6032 5.99367ZM13.0346 5.29513L12.6071 5.71086L12.886 5.99761L13.3135 5.58189L13.0346 5.29513ZM15.3456 6.64888C14.783 6.43567 14.0358 6.03781 13.3174 5.29907L13.0307 5.57794C13.7967 6.36569 14.5965 6.79277 15.2038 7.02293L15.3456 6.64888ZM16.0228 6.84907C15.862 6.81584 15.6272 6.75559 15.3456 6.64888L15.2038 7.02293C15.5076 7.13802 15.763 7.20383 15.9419 7.24079L16.0228 6.84907ZM16.2041 6.88096C16.1647 6.87548 16.1032 6.86568 16.0228 6.84907L15.9419 7.24079C16.0313 7.25927 16.1014 7.27053 16.1489 7.27714L16.2041 6.88096ZM16.2459 6.88624C16.2378 6.88536 16.2237 6.88371 16.2041 6.88097L16.1489 7.27714C16.1726 7.28044 16.1906 7.28258 16.2024 7.28388L16.2459 6.88624ZM16.2345 7.08612C16.2539 6.88706 16.2539 6.88706 16.2539 6.88706C16.2539 6.88706 16.2539 6.88706 16.2539 6.88706C16.2539 6.88706 16.2539 6.88706 16.2539 6.88706C16.2539 6.88706 16.2539 6.88706 16.2539 6.88706C16.2539 6.88706 16.2539 6.88706 16.2539 6.88706C16.2539 6.88706 16.2539 6.88706 16.2539 6.88706C16.2538 6.88706 16.2538 6.88706 16.2538 6.88705C16.2537 6.88704 16.2535 6.88703 16.2533 6.887C16.2528 6.88696 16.2521 6.88689 16.2513 6.88681C16.2496 6.88664 16.2476 6.88643 16.2459 6.88624L16.2024 7.28388C16.2057 7.28423 16.2088 7.28455 16.211 7.28478C16.2122 7.28489 16.2131 7.28499 16.2138 7.28506C16.2142 7.28509 16.2145 7.28512 16.2147 7.28514C16.2148 7.28515 16.2149 7.28516 16.2149 7.28516C16.215 7.28517 16.215 7.28517 16.215 7.28517C16.215 7.28517 16.215 7.28517 16.215 7.28518C16.2151 7.28518 16.2151 7.28518 16.2151 7.28518C16.2151 7.28518 16.2151 7.28518 16.2151 7.28518C16.2151 7.28518 16.2151 7.28518 16.2151 7.28518C16.2151 7.28518 16.2151 7.28518 16.2345 7.08612ZM16.2544 6.88711L16.2528 6.88696L16.2161 7.28528L16.2177 7.28543L16.2544 6.88711ZM16.3888 7.21539L16.3895 7.21458L16.0827 6.95795L16.082 6.95876L16.3888 7.21539ZM16.5097 7.6372L16.4337 7.06092L16.0371 7.11322L16.1131 7.68951L16.5097 7.6372ZM16.442 7.81489L16.4436 7.81344L16.1792 7.51327L16.1776 7.51471L16.442 7.81489ZM16.37 7.85588C16.3748 7.85403 16.3779 7.85283 16.3794 7.85227L16.2401 7.47733C16.237 7.47849 16.2321 7.48032 16.2256 7.48283L16.37 7.85588ZM16.3222 7.8752C16.3442 7.86599 16.3603 7.85961 16.3699 7.85589L16.2256 7.48283C16.2127 7.48785 16.1931 7.4956 16.1677 7.50628L16.3222 7.8752ZM16.125 7.96571C16.211 7.92331 16.2783 7.89362 16.3223 7.8752L16.1676 7.50628C16.1167 7.52765 16.0419 7.56071 15.9481 7.60699L16.125 7.96571ZM15.4253 8.38286C15.7073 8.18589 15.9529 8.05061 16.125 7.96571L15.9481 7.60699C15.7604 7.69956 15.497 7.84487 15.1962 8.05493L15.4253 8.38286ZM13.5995 10.3855C14.1565 9.41418 14.8611 8.77695 15.4253 8.38286L15.1962 8.05493C14.5947 8.47509 13.8448 9.15356 13.2525 10.1865L13.5995 10.3855ZM12.8092 10.1629L13.3265 10.4595L13.5255 10.1125L13.0082 9.8159L12.8092 10.1629ZM14.7056 7.67325C14.077 8.13731 13.3323 8.84872 12.7352 9.88991L13.0822 10.0889C13.6466 9.10474 14.35 8.43294 14.9431 7.99506L14.7056 7.67325ZM7.78768 10.1922C9.85798 9.08604 12.3428 8.2963 14.8453 8.03306L14.8034 7.63525C12.2485 7.90401 9.71405 8.70942 7.59918 9.83945L7.78768 10.1922ZM3.01372 14.7017C3.70815 13.0567 5.44961 11.4415 7.78768 10.1922L7.59918 9.83945C5.22258 11.1093 3.39029 12.7812 2.64521 14.5461L3.01372 14.7017ZM2.91405 17.5089C2.52618 16.7788 2.54906 15.8018 3.01371 14.7017L2.64523 14.5461C2.15285 15.7118 2.09686 16.8232 2.5608 17.6966L2.91405 17.5089ZM3.93612 19.0992C3.29233 18.1948 3.25286 18.1394 2.91361 17.5081L2.56125 17.6974C2.91215 18.3504 2.96273 18.4215 3.61026 19.3311L3.93612 19.0992ZM3.93682 19.1001L3.93616 19.0992L3.61022 19.3311L3.61088 19.332L3.93682 19.1001ZM4.27618 19.5094C4.15782 19.374 4.04319 19.2346 3.93087 19.0922L3.61683 19.34C3.73244 19.4865 3.85139 19.6312 3.975 19.7726L4.27618 19.5094ZM4.21001 17.2843C3.86375 18.1118 3.7681 18.9272 3.93002 19.6829L4.32115 19.5991C4.17899 18.9356 4.25895 18.2036 4.57901 17.4387L4.21001 17.2843ZM5.59974 15.23C4.9945 15.868 4.51361 16.5587 4.21001 17.2843L4.57901 17.4387C4.85984 16.7675 5.30998 16.1167 5.88993 15.5053L5.59974 15.23ZM6.31508 15.633L5.88248 15.2226L5.60718 15.5128L6.03978 15.9232L6.31508 15.633ZM5.12908 17.6689C5.37596 17.0788 5.78029 16.4873 6.32253 15.9157L6.03233 15.6404C5.4648 16.2387 5.02973 16.87 4.76008 17.5145L5.12908 17.6689ZM4.92876 19.5775C4.78474 19.0266 4.83003 18.3836 5.12908 17.6689L4.76008 17.5145C4.43297 18.2962 4.37204 19.0294 4.54177 19.6787L4.92876 19.5775ZM5.96563 21.0389C5.41522 20.6267 5.07242 20.1271 4.92876 19.5775L4.54177 19.6787C4.71126 20.3271 5.11294 20.9001 5.72588 21.359L5.96563 21.0389ZM7.57282 22.0534C6.76224 21.6083 6.63757 21.5238 5.9628 21.0368L5.72871 21.3611C6.41592 21.8571 6.55444 21.9506 7.38032 22.404L7.57282 22.0534ZM7.65081 22.3269L7.65189 22.3249L7.30125 22.1324L7.30017 22.1344L7.65081 22.3269ZM8.62507 22.5108C8.26198 22.3765 7.90815 22.2231 7.56481 22.0517L7.38617 22.4096C7.74239 22.5874 8.10952 22.7466 8.48629 22.886L8.62507 22.5108ZM23.6374 12.5801C23.6256 13.811 23.417 14.9944 23.0417 16.1007L23.4205 16.2292C23.8092 15.0833 24.0251 13.8578 24.0374 12.584L23.6374 12.5801ZM23.6385 12.554L23.6385 12.5608L24.0385 12.5633L24.0385 12.5564L23.6385 12.554ZM23.6378 12.4103C23.6385 12.4603 23.6388 12.5084 23.6385 12.554L24.0385 12.5564C24.0388 12.5077 24.0385 12.4569 24.0378 12.4048L23.6378 12.4103ZM23.615 11.7419C23.629 11.9625 23.6367 12.1848 23.6378 12.4086L24.0378 12.4065C24.0366 12.1749 24.0287 11.9449 24.0142 11.7166L23.615 11.7419ZM23.6054 11.5134C23.608 11.5829 23.6113 11.6589 23.6148 11.7379L24.0144 11.7205C24.0109 11.6412 24.0077 11.5663 24.0051 11.4981L23.6054 11.5134ZM23.6049 11.5006L23.6053 11.5134L24.0051 11.4981L24.0046 11.4853L23.6049 11.5006ZM23.6047 11.505L23.6063 11.5178L24.0032 11.4681L24.0016 11.4553L23.6047 11.505ZM23.5877 11.3898C23.5942 11.4285 23.5999 11.467 23.6047 11.505L24.0016 11.4554C23.9961 11.4114 23.9896 11.3673 23.9821 11.323L23.5877 11.3898ZM22.9676 8.62519C23.2829 9.49701 23.494 10.4188 23.5858 11.3755L23.984 11.3373C23.8889 10.3467 23.6703 9.39214 23.3437 8.48915L22.9676 8.62519ZM23.0893 8.36843L23.0852 8.37L23.2261 8.74434L23.2303 8.74276L23.0893 8.36843ZM22.6234 7.78207C22.7467 8.03755 22.8265 8.23807 22.9727 8.62611L23.347 8.48508C23.2 8.09486 23.1151 7.88051 22.9836 7.60817L22.6234 7.78207ZM12.3383 1.16875C16.9053 1.16875 20.8398 3.87819 22.6216 7.77823L22.9854 7.61201C21.141 3.57482 17.0676 0.76875 12.3383 0.76875V1.16875ZM1.03862 12.4688C1.03862 6.22793 6.09767 1.16875 12.3383 1.16875V0.76875C5.87674 0.76875 0.638623 6.00702 0.638623 12.4688H1.03862ZM1.30243 14.9076C1.12971 14.1223 1.03862 13.3063 1.03862 12.4688H0.638623C0.638623 13.3354 0.732877 14.1802 0.911768 14.9935L1.30243 14.9076ZM1.31092 14.9551C1.30868 14.9423 1.30642 14.9293 1.30413 14.9162L0.910064 14.9849C0.912362 14.998 0.914641 15.0111 0.916897 15.024L1.31092 14.9551ZM1.08114 14.7923L1.07936 14.7926L1.14846 15.1866L1.15024 15.1863L1.08114 14.7923ZM12.3383 23.7687C6.94869 23.7687 2.43995 19.9951 1.31087 14.9456L0.920508 15.0329C2.08957 20.2612 6.75738 24.1688 12.3383 24.1688V23.7687ZM17.5441 22.5008C15.9863 23.3109 14.2161 23.7687 12.3383 23.7687V24.1688C14.2818 24.1688 16.1152 23.6947 17.7286 22.8557L17.5441 22.5008ZM20.5091 20.2755C19.8593 21.0993 18.8337 21.8842 17.5501 22.4978L17.7226 22.8587C19.0468 22.2257 20.1265 21.4063 20.8231 20.5232L20.5091 20.2755ZM21.9471 18.4178C21.5355 19.0812 21.0571 19.6989 20.5213 20.2614L20.8109 20.5373C21.3656 19.955 21.8609 19.3155 22.287 18.6286L21.9471 18.4178ZM22.225 18.3547L22.2215 18.3526L22.0127 18.6938L22.0163 18.696L22.225 18.3547ZM22.4943 17.4285C22.2946 17.8487 22.2106 17.9946 21.95 18.4211L22.2913 18.6297C22.5567 18.1953 22.6481 18.0367 22.8555 17.6002L22.4943 17.4285ZM22.6481 17.1008C22.5988 17.2103 22.5479 17.3189 22.4952 17.4265L22.8546 17.6022C22.9091 17.4908 22.9619 17.3784 23.0129 17.265L22.6481 17.1008ZM22.777 16.8235C22.7301 16.9246 22.6878 17.0156 22.6492 17.0984L23.0118 17.2673C23.0505 17.1843 23.0929 17.0931 23.1398 16.9921L22.777 16.8235ZM22.7803 16.8166L22.777 16.8235L23.1398 16.9921L23.143 16.9852L22.7803 16.8166ZM22.9055 16.5057L22.7762 16.826L23.1471 16.9757L23.2764 16.6554L22.9055 16.5057ZM22.9052 16.5064L22.9045 16.5082L23.2774 16.653L23.278 16.6512L22.9052 16.5064ZM23.0387 16.1102C23.0016 16.2407 22.9571 16.3728 22.9052 16.5063L23.278 16.6513C23.3343 16.5066 23.3828 16.3627 23.4235 16.2197L23.0387 16.1102ZM14.6796 4.1218C16.8559 4.0088 18.6636 4.33367 20.0021 4.97994L20.1761 4.61973C18.761 3.93651 16.882 3.6069 14.6589 3.72234L14.6796 4.1218ZM6.54053 6.38085C8.91278 5.1229 11.8125 4.2706 14.6796 4.1218L14.6589 3.72234C11.7309 3.8743 8.77447 4.74349 6.35314 6.02746L6.54053 6.38085ZM1.7843 10.6162C2.65351 9.00746 4.38668 7.52299 6.54053 6.38085L6.35314 6.02746C4.16144 7.18968 2.35323 8.72174 1.43238 10.4261L1.7843 10.6162ZM1.52942 9.91762C1.48532 10.1052 1.44597 10.2946 1.41151 10.4857L1.80517 10.5567C1.83838 10.3725 1.8763 10.1899 1.9188 10.0092L1.52942 9.91762ZM1.70631 9.26802L1.53114 9.91081L1.91707 10.016L2.09224 9.37319L1.70631 9.26802ZM1.71552 9.24003L1.71026 9.25522L2.08828 9.38599L2.09354 9.3708L1.71552 9.24003ZM2.11045 8.15424C1.9807 8.47356 1.83113 8.90585 1.71552 9.24003L2.09354 9.3708C2.21023 9.03348 2.35611 8.61226 2.48103 8.30482L2.11045 8.15424ZM2.16967 8.01739L2.11222 8.15003L2.47926 8.30902L2.53672 8.17638L2.16967 8.01739ZM6.47006 4.07935C4.41773 5.14194 2.82223 6.54023 2.17025 8.01607L2.53614 8.17771C3.13498 6.82216 4.63747 5.4786 6.65397 4.43456L6.47006 4.07935ZM13.4326 2.17349C11.0108 2.29946 8.51991 3.01804 6.47006 4.07935L6.65397 4.43456C8.65614 3.39794 11.0917 2.69579 13.4534 2.57295L13.4326 2.17349ZM18.5572 3.28077C17.3787 2.4954 15.7105 2.05498 13.4326 2.17349L13.4534 2.57295C15.6716 2.45754 17.2476 2.88873 18.3354 3.61364L18.5572 3.28077ZM19.1286 3.69203L18.5632 3.2849L18.3295 3.60951L18.8949 4.01664L19.1286 3.69203ZM20.1141 4.54445C19.8325 4.28165 19.4398 3.94953 19.1395 3.7004L18.8841 4.00827C19.184 4.25703 19.5689 4.58271 19.8411 4.83686L20.1141 4.54445ZM19.8322 4.5533L19.8313 4.55429L20.1239 4.82701L20.1248 4.82602L19.8322 4.5533ZM20.2313 4.65916C20.194 4.6215 20.1565 4.58411 20.1187 4.54698L19.8384 4.83234C19.8748 4.86814 19.911 4.90419 19.9469 4.9405L20.2313 4.65916ZM6.19591 3.54981C5.64154 3.83683 5.11429 4.15011 4.62492 4.48567L4.85112 4.81556C5.32589 4.49003 5.83889 4.18508 6.37982 3.90502L6.19591 3.54981ZM13.4016 1.57799C10.8903 1.70862 8.31684 2.45169 6.19591 3.54981L6.37982 3.90502C8.45307 2.83159 10.9711 2.10495 13.4224 1.97745L13.4016 1.57799ZM14.4083 1.56058C14.0847 1.55427 13.7493 1.5599 13.4016 1.57799L13.4224 1.97745C13.761 1.95983 14.087 1.95439 14.4005 1.96051L14.4083 1.56058ZM12.3383 1.76506C13.032 1.76506 13.7101 1.83102 14.3667 1.95697L14.4421 1.56413C13.7607 1.43344 13.0574 1.36506 12.3383 1.36506V1.76506ZM4.87745 4.79401C6.80549 2.91926 9.43691 1.76506 12.3383 1.76506V1.36506C9.32862 1.36506 6.59828 2.56281 4.5986 4.50723L4.87745 4.79401ZM19.5857 20.3413C19.564 20.3628 19.5421 20.3843 19.5199 20.4057L19.7975 20.6936C19.8212 20.6708 19.8446 20.6479 19.8677 20.6249L19.5857 20.3413ZM20.591 17.9881C20.7608 18.5757 20.5196 19.4125 19.5857 20.3413L19.8677 20.6249C20.8473 19.6508 21.2041 18.6691 20.9752 17.877L20.591 17.9881ZM18.4854 16.5339C19.7707 16.8213 20.4211 17.4004 20.591 17.9881L20.9752 17.877C20.7464 17.085 19.9209 16.445 18.5727 16.1436L18.4854 16.5339ZM13.8181 16.8171C15.5725 16.3101 17.2337 16.2541 18.4854 16.5339L18.5727 16.1436C17.2437 15.8464 15.5133 15.9108 13.707 16.4328L13.8181 16.8171ZM9.71918 19.0673C10.6286 18.1629 12.0637 17.3241 13.8181 16.8171L13.707 16.4328C11.9007 16.9548 10.4027 17.8234 9.43713 18.7837L9.71918 19.0673ZM8.71388 21.4205C8.54406 20.8329 8.78528 19.9961 9.71918 19.0673L9.43713 18.7837C8.45756 19.7579 8.10071 20.7395 8.3296 21.5316L8.71388 21.4205ZM10.8194 22.8747C9.5341 22.5873 8.8837 22.0082 8.71388 21.4205L8.3296 21.5316C8.55849 22.3236 9.38398 22.9636 10.7322 23.2651L10.8194 22.8747ZM13.6404 22.9694C12.5863 23.0955 11.6187 23.0534 10.8194 22.8747L10.7322 23.2651C11.5829 23.4553 12.5968 23.497 13.6879 23.3666L13.6404 22.9694ZM11.5234 22.1566C11.6333 22.5369 11.915 22.8267 12.2871 23.0253C12.6583 23.2234 13.1303 23.3376 13.6527 23.3677L13.6757 22.9683C13.1934 22.9406 12.782 22.836 12.4755 22.6724C12.1699 22.5093 11.9796 22.2945 11.9077 22.0455L11.5234 22.1566ZM14.49 19.1425C13.5397 19.4171 12.7294 19.8749 12.1894 20.4029C11.656 20.9242 11.3496 21.5551 11.5234 22.1566L11.9077 22.0455C11.7944 21.6538 11.978 21.1688 12.469 20.6889C12.9532 20.2156 13.7014 19.7868 14.6011 19.5268L14.49 19.1425ZM18.6072 20.1094C18.4334 19.5079 17.8376 19.1377 17.1084 18.9813C16.37 18.8228 15.4404 18.8678 14.49 19.1425L14.6011 19.5268C15.5008 19.2668 16.3624 19.2303 17.0245 19.3724C17.6957 19.5164 18.1097 19.8287 18.2229 20.2204L18.6072 20.1094ZM17.4521 22.2697C17.878 21.9655 18.2162 21.6172 18.4245 21.2516C18.6334 20.8851 18.7171 20.4897 18.6072 20.1094L18.2229 20.2204C18.2948 20.4694 18.2484 20.7527 18.077 21.0536C17.905 21.3554 17.6127 21.6634 17.2196 21.9441L17.4521 22.2697ZM18.5678 21.1739C18.174 21.4432 17.7324 21.697 17.25 21.9263L17.4217 22.2875C17.9218 22.0499 18.3816 21.7858 18.7936 21.504L18.5678 21.1739ZM19.5244 20.4015C19.2198 20.6776 18.8992 20.9364 18.5643 21.1763L18.7972 21.5015C19.1446 21.2526 19.4771 20.9842 19.793 20.6978L19.5244 20.4015ZM17.6032 20.3995C17.6192 20.4549 17.6312 20.7048 17.2107 21.1158L17.4903 21.4018C17.9573 20.9453 18.063 20.55 17.9875 20.2885L17.6032 20.3995ZM16.8891 20.0031C17.464 20.1264 17.5872 20.3441 17.6032 20.3995L17.9875 20.2885C17.9119 20.027 17.6116 19.749 16.9731 19.612L16.8891 20.0031ZM14.7802 20.1465C15.5981 19.9101 16.3503 19.8874 16.8891 20.0031L16.9731 19.612C16.3578 19.48 15.5378 19.5112 14.6691 19.7622L14.7802 20.1465ZM12.9198 21.1502C13.314 20.7649 13.9623 20.3828 14.7802 20.1465L14.6691 19.7622C13.8005 20.0132 13.0902 20.4243 12.6402 20.8642L12.9198 21.1502ZM12.5273 21.8665C12.5113 21.8111 12.4994 21.5612 12.9198 21.1502L12.6402 20.8642C12.1732 21.3206 12.0675 21.716 12.1431 21.9775L12.5273 21.8665ZM13.2414 22.2629C12.6665 22.1396 12.5433 21.9218 12.5273 21.8665L12.1431 21.9775C12.2186 22.239 12.519 22.517 13.1575 22.654L13.2414 22.2629ZM15.3504 22.1195C14.5324 22.3559 13.7803 22.3785 13.2414 22.2629L13.1575 22.654C13.7727 22.786 14.5928 22.7548 15.4614 22.5038L15.3504 22.1195ZM17.2107 21.1158C16.8166 21.501 16.1683 21.8831 15.3504 22.1195L15.4614 22.5038C16.33 22.2528 17.0403 21.8417 17.4903 21.4018L17.2107 21.1158ZM23.6387 12.5517L23.6377 12.5717L24.0372 12.5924L24.0382 12.5724L23.6387 12.5517ZM9.02903 14.0615C9.03696 14.0597 9.12814 14.0393 9.286 14.0223L9.24311 13.6246C9.06795 13.6435 8.96119 13.6667 8.9397 13.6716L9.02903 14.0615ZM8.5495 13.4306C8.5993 13.5328 8.66307 13.6637 8.71438 13.769C8.74004 13.8217 8.76259 13.868 8.77872 13.9011C8.78678 13.9177 8.79324 13.9309 8.79769 13.9401C8.79991 13.9446 8.80163 13.9482 8.80279 13.9505C8.80337 13.9517 8.80382 13.9526 8.80411 13.9532C8.80426 13.9536 8.80437 13.9538 8.80445 13.9539C8.80449 13.954 8.80451 13.9541 8.80453 13.9541C8.80456 13.9542 8.80453 13.9541 8.80456 13.9542C8.80456 13.9542 8.80456 13.9542 8.80456 13.9542C8.80456 13.9542 8.80456 13.9542 8.98436 13.8666C9.16417 13.779 9.16417 13.779 9.16417 13.779C9.16416 13.779 9.16416 13.779 9.16416 13.779C9.16413 13.7789 9.16417 13.779 9.16414 13.7789C9.16412 13.7789 9.16409 13.7789 9.16405 13.7788C9.16398 13.7786 9.16386 13.7784 9.16372 13.7781C9.16342 13.7775 9.16298 13.7766 9.1624 13.7754C9.16123 13.773 9.15952 13.7695 9.15729 13.7649C9.15285 13.7558 9.14639 13.7425 9.13832 13.7259C9.12219 13.6928 9.09965 13.6465 9.07399 13.5939C9.02267 13.4885 8.95891 13.3576 8.9091 13.2554L8.5495 13.4306ZM8.78717 13.0204C8.73679 13.0695 8.69348 13.102 8.6573 13.1297C8.6432 13.1405 8.61663 13.1605 8.59603 13.1815C8.58606 13.1916 8.56369 13.2153 8.54761 13.2507C8.52851 13.2927 8.51524 13.3602 8.5495 13.4306L8.9091 13.2554C8.92309 13.2841 8.92951 13.3156 8.92819 13.3469C8.92692 13.3767 8.91893 13.4004 8.91172 13.4163C8.89883 13.4446 8.8825 13.4606 8.88115 13.462C8.87776 13.4654 8.87672 13.466 8.88141 13.4622C8.88564 13.4587 8.89144 13.4542 8.90044 13.4473C8.93578 13.4203 8.99674 13.3746 9.06624 13.307L8.78717 13.0204Z" fill="#04171D" mask="url(#path-1-outside-1_3964_16733)"/>
</svg>
